HIERARCHY
ROOT Hips
{
  OFFSET 0.000000 0.000000 0.000000
  CHANNELS 6 Xposition Yposition Zposition Xrotation Yrotation Zrotation
  JOINT Spine
  {
    OFFSET 1.388230 -22.849755 -8.157144
    CHANNELS 3 Xrotation Yrotation Zrotation
    JOINT Chest
    {
      OFFSET 1.388230 -22.849755 -8.157144
      CHANNELS 3 Xrotation Yrotation Zrotation
      JOINT Neck
      {
        OFFSET 0.773124 -16.996889 -7.380814
        CHANNELS 3 Xrotation Yrotation Zrotation
        JOINT Head
        {
          OFFSET 0.829046 3.305784 -11.271278
          CHANNELS 3 Xrotation Yrotation Zrotation
          End Site
          {
            OFFSET 0.0 5.0 2.0
          }
        }
      }
      JOINT LeftShoulder
      {
        OFFSET 17.248308 1.208605 -0.261267
        CHANNELS 3 Xrotation Yrotation Zrotation
        JOINT LeftArm
        {
          OFFSET 7.635523 21.435821 1.774202
          CHANNELS 3 Xrotation Yrotation Zrotation
          JOINT LeftForeArm
          {
            OFFSET 7.643843 21.327462 -9.147581
            CHANNELS 3 Xrotation Yrotation Zrotation
            JOINT LeftHand
            {
              OFFSET 0.209327 5.896815 -2.586139
              CHANNELS 3 Xrotation Yrotation Zrotation
              End Site
              {
                OFFSET -3.0 0.0 2.0
              }
            }
          }
        }
      }
      JOINT RightShoulder
      {
        OFFSET -17.248308 -1.208605 0.261267
        CHANNELS 3 Xrotation Yrotation Zrotation
        JOINT RightArm
        {
          OFFSET -12.133127 21.363330 5.693170
          CHANNELS 3 Xrotation Yrotation Zrotation
          JOINT RightForeArm
          {
            OFFSET -7.740244 22.047532 -5.230031
            CHANNELS 3 Xrotation Yrotation Zrotation
            JOINT RightHand
            {
              OFFSET -0.130476 6.134634 -1.903036
              CHANNELS 3 Xrotation Yrotation Zrotation
              End Site
              {
                OFFSET 3.0 0.0 2.0
              }
            }
          }
        }
      }
    }
  }
  JOINT LeftUpLeg
  {
    OFFSET 11.699587 0.675443 -0.599665
    CHANNELS 3 Xrotation Yrotation Zrotation
    JOINT LeftLeg
    {
      OFFSET -6.527727 38.483662 2.000000
      CHANNELS 3 Xrotation Yrotation Zrotation
      JOINT LeftFoot
      {
        OFFSET 2.208129 30.668512 15.986089
        CHANNELS 3 Xrotation Yrotation Zrotation
        JOINT LeftToeBase
        {
          OFFSET 1.893679 11.141187 -10.580111
          CHANNELS 3 Xrotation Yrotation Zrotation
          End Site
          {
            OFFSET 0.0 -1.0 3.0
          }
        }
      }
    }
  }
  JOINT RightUpLeg
  {
    OFFSET -11.699587 -0.675443 0.599665
    CHANNELS 3 Xrotation Yrotation Zrotation
    JOINT RightLeg
    {
      OFFSET -1.173808 37.981520 2.000000
      CHANNELS 3 Xrotation Yrotation Zrotation
      JOINT RightFoot
      {
        OFFSET -5.080520 34.540695 11.520179
        CHANNELS 3 Xrotation Yrotation Zrotation
        JOINT RightToeBase
        {
          OFFSET -7.496841 8.997232 -11.583195
          CHANNELS 3 Xrotation Yrotation Zrotation
          End Site
          {
            OFFSET 0.0 -1.0 3.0
          }
        }
      }
    }
  }
}
MOTION
Frames: 17
Frame Time: 0.066260
0.000000 0.000000 0.000000 0.000000 0.000000 0.000000 0.000000 0.000000 0.000000 0.000000 0.000000 0.000000 0.000000 0.000000 0.000000 0.000000 0.000000 0.000000 0.000000 0.000000 0.000000 0.000000 0.000000 0.000000 0.000000 0.000000 0.000000 0.000000 0.000000 0.000000 0.000000 0.000000 0.000000 0.000000 0.000000 0.000000 0.000000 0.000000 0.000000 0.000000 0.000000 0.000000 -0.379081 -0.064300 0.000213 0.000000 0.000000 0.000000 86.172215 -9.625316 -9.005483 0.000000 0.000000 0.000000 -4.834565 -0.149233 0.006300 0.000000 0.000000 0.000000 89.180227 39.799485 39.277610 0.000000 0.000000 0.000000
0.000000 0.000000 0.000000 0.089041 -1.826715 -0.467869 1.509518 0.073159 0.051054 0.267329 -3.475882 -1.534823 -0.698477 -0.880183 -0.303795 0.000000 0.000000 0.000000 0.054928 0.069038 -1.067026 -1.363370 -1.024571 -3.445063 -2.656519 -1.542165 -3.512847 0.000000 0.000000 0.000000 -5.015563 -2.669208 -0.713804 -6.405752 -2.915169 -2.071464 -6.586535 -1.093237 -2.536608 0.000000 0.000000 0.000000 4.210263 0.944188 -2.528553 0.315217 0.449625 -0.900607 83.391049 -9.940634 -23.410770 0.000000 0.000000 0.000000 4.845314 0.111032 0.411046 6.323477 1.255706 -0.772497 86.164526 39.594422 30.228700 0.000000 0.000000 0.000000
0.000000 0.000000 0.000000 0.128917 -2.658355 -0.883819 3.030112 0.221904 -0.093005 0.343667 -4.087613 -2.743607 -1.689610 -2.457534 -0.806701 0.000000 0.000000 0.000000 1.534390 -0.417737 -1.326801 -2.386880 -1.134015 -4.434193 -4.670774 -2.299225 -5.061726 0.000000 0.000000 0.000000 -5.120489 -2.676613 -0.964328 -6.850222 -3.032893 -1.901995 -7.686659 -1.151382 -2.551701 0.000000 0.000000 0.000000 6.604432 1.555669 -3.835185 1.634296 0.804723 -1.712791 83.632900 -9.961074 -25.569366 0.000000 0.000000 0.000000 7.572186 0.127926 0.899107 7.403237 1.592306 -1.168197 86.705052 39.612735 29.126523 0.000000 0.000000 0.000000
0.000000 0.000000 0.000000 0.173783 -3.444435 -1.203701 2.978309 0.278651 -0.248160 0.329524 -3.866807 -3.098592 -1.915426 -3.535840 -1.116165 0.000000 0.000000 0.000000 1.267350 -0.251535 -2.115265 -2.087577 -1.636869 -5.363522 -4.196210 -2.547955 -5.595029 0.000000 0.000000 0.000000 -5.028556 -2.691113 -0.643541 -5.435179 -2.054439 -0.419133 -6.638086 -0.431359 -0.766403 0.000000 0.000000 0.000000 5.334361 1.372054 -4.603650 0.528882 0.459973 -0.945502 83.956661 -9.874402 -23.301400 0.000000 0.000000 0.000000 6.007229 0.121671 0.613214 5.385020 1.312923 -1.307325 86.874329 39.589427 26.825392 0.000000 0.000000 0.000000
0.000000 0.000000 0.000000 0.197565 -3.868813 -1.508248 3.484046 0.352566 -0.353469 0.321743 -3.672930 -3.746415 -2.520227 -4.090903 -1.290729 0.000000 0.000000 0.000000 0.385246 0.071599 -2.430219 -2.006762 -1.537806 -5.081753 -4.515628 -2.289953 -5.048321 0.000000 0.000000 0.000000 -5.833267 -3.361122 0.462156 -5.869494 -1.361883 2.449707 -7.049313 0.593178 1.969069 0.000000 0.000000 0.000000 4.670533 1.273339 -5.047916 -0.122781 0.611761 -1.160541 84.107723 -9.877954 -24.441909 0.000000 0.000000 0.000000 5.444761 0.122070 0.465194 4.728016 1.346201 -1.678066 86.597761 39.549044 25.967114 0.000000 0.000000 0.000000
0.000000 0.000000 0.000000 0.219870 -4.233516 -1.767281 4.294029 0.508098 -0.608726 0.377143 -4.149352 -4.037049 -2.561912 -4.699311 -1.457141 0.000000 0.000000 0.000000 0.662436 0.005490 -2.726777 -2.202792 -1.649563 -5.471656 -4.927171 -2.794009 -6.061952 0.000000 0.000000 0.000000 -5.770705 -3.347763 0.568917 -6.041674 -1.230754 3.088955 -7.798314 0.812324 2.541171 0.000000 0.000000 0.000000 4.493872 1.248528 -5.190966 -0.325140 0.673554 -1.257007 84.548246 -9.808032 -23.310694 0.000000 0.000000 0.000000 5.616564 0.145800 0.278075 4.995052 1.459402 -1.854831 86.246064 39.506399 25.546196 0.000000 0.000000 0.000000
0.000000 0.000000 0.000000 0.224680 -4.303312 -1.791077 5.660102 0.848471 -1.202674 0.338429 -3.881000 -3.494408 -3.039191 -4.123575 -1.317276 0.000000 0.000000 0.000000 1.103230 -0.221962 -1.839016 -5.106914 -2.127516 -8.378731 -8.241943 -5.630653 -11.263571 0.000000 0.000000 0.000000 -5.184420 -3.441513 2.632916 -6.789828 -1.723951 2.274845 -8.683638 0.642163 2.103528 0.000000 0.000000 0.000000 4.445242 1.218191 -4.980228 1.215833 0.490277 -1.081906 85.638740 -9.678332 -21.799899 0.000000 0.000000 0.000000 5.903559 0.149014 0.326100 6.686844 1.739726 -1.829695 86.740222 39.568394 26.297414 0.000000 0.000000 0.000000
0.000000 0.000000 0.000000 0.323749 -5.646790 -1.878407 4.826423 0.785083 -1.201012 0.483828 -5.367359 -3.344168 -2.770414 -3.931402 -1.256426 0.000000 0.000000 0.000000 4.074736 -1.157137 -2.445766 -8.877133 -7.558056 -21.499913 -14.355052 -15.587657 -26.889062 0.000000 0.000000 0.000000 -7.331137 -4.668730 3.243932 -9.256418 -2.870922 1.346756 -9.578542 0.439309 1.604539 0.000000 0.000000 0.000000 3.262842 1.026490 -5.745927 0.849024 0.614603 -1.274592 86.563155 -9.587398 -21.523816 0.000000 0.000000 0.000000 5.191847 0.124900 0.366838 6.553186 1.735289 -1.876001 85.568381 39.415247 24.608701 0.000000 0.000000 0.000000
0.000000 0.000000 0.000000 0.448123 -7.267986 -2.123533 5.420788 0.819867 -1.177037 0.712465 -7.692203 -3.273083 -2.088102 -3.696227 -1.167165 0.000000 0.000000 0.000000 7.398041 -1.365504 -8.428605 -12.089790 -15.623748 -38.357881 -19.815689 -28.377316 -43.268492 0.000000 0.000000 0.000000 -12.313117 -7.161991 2.902360 -12.371312 -4.593832 -0.327973 -9.827218 0.097621 0.768720 0.000000 0.000000 0.000000 3.914771 1.175039 -5.783266 4.134145 0.523630 -1.456910 85.017294 -9.724269 -20.221857 0.000000 0.000000 0.000000 5.261772 0.133565 0.298920 7.112131 1.802556 -1.803659 86.217651 39.449404 22.886718 0.000000 0.000000 0.000000
0.000000 0.000000 0.000000 0.491157 -7.823712 -2.132629 5.850934 0.621932 -0.623883 0.752268 -8.760626 -2.201886 -2.323708 -2.370170 -0.814499 0.000000 0.000000 0.000000 4.147724 1.242226 -23.273295 -17.559937 -23.682792 -52.591852 -24.648076 -38.615361 -53.446905 0.000000 0.000000 0.000000 -12.531300 -7.346716 3.546028 -9.638933 -4.264707 -2.358854 -5.150782 -0.076230 0.097008 0.000000 0.000000 0.000000 3.550773 1.173766 -6.714896 3.332601 0.306413 -0.984762 84.237877 -9.811537 -21.443428 0.000000 0.000000 0.000000 3.465565 0.129173 -0.263216 8.054218 1.862046 -1.554972 86.819598 39.524009 23.090151 0.000000 0.000000 0.000000
0.000000 0.000000 0.000000 0.486023 -7.767415 -2.086427 7.316646 0.390356 0.151205 0.698807 -8.553769 -1.623777 -3.029816 -0.391009 -0.324808 0.000000 0.000000 0.000000 -2.345843 3.047554 -40.246831 -18.066660 -29.670343 -63.286689 -20.578773 -44.974297 -65.235135 0.000000 0.000000 0.000000 -9.276063 -5.732067 3.701428 -6.161244 -3.403840 -3.966530 -6.447556 -0.397723 -0.691459 0.000000 0.000000 0.000000 3.957745 1.251949 -6.535004 3.867849 0.290101 -1.015740 82.875766 -9.923658 -20.778827 0.000000 0.000000 0.000000 4.964705 0.208079 -0.562897 9.175360 2.085981 -1.627726 83.780067 39.093473 21.122735 0.000000 0.000000 0.000000
0.000000 0.000000 0.000000 0.458452 -7.423252 -2.005248 6.785647 0.288036 0.314103 0.674597 -7.847299 -2.286948 -3.293273 -0.083278 -0.262134 0.000000 0.000000 0.000000 -0.926336 3.957510 -53.868956 -16.756097 -27.725505 -60.419331 -12.576052 -40.054874 -66.427138 0.000000 0.000000 0.000000 -8.421554 -5.340349 3.950160 -7.663097 -3.900438 -3.622614 0.854907 0.031704 0.044902 0.000000 0.000000 0.000000 4.935580 1.462105 -6.382236 3.063267 0.362865 -1.055928 83.870776 -9.831274 -20.662078 0.000000 0.000000 0.000000 4.841251 0.289654 -1.466142 8.676650 1.931171 -1.465954 85.188217 39.349478 23.693066 0.000000 0.000000 0.000000
0.000000 0.000000 0.000000 0.443868 -7.283639 -1.692547 6.378814 0.049724 0.821831 0.709558 -7.477186 -3.636664 -3.377630 -0.509472 -0.379753 0.000000 0.000000 0.000000 -0.149771 4.854257 -64.566632 -8.944413 -25.032219 -59.136220 -7.085346 -34.054672 -63.017874 0.000000 0.000000 0.000000 -8.104480 -5.390627 5.241003 -7.224113 -3.628345 -3.324248 -0.949433 -0.010122 0.031703 0.000000 0.000000 0.000000 0.702254 0.533779 -7.029751 -3.076552 1.047732 -1.702917 89.417327 -9.343216 -20.358249 0.000000 0.000000 0.000000 2.426215 0.261599 -2.520651 6.135801 1.519322 -1.513478 88.341485 39.719564 26.195496 0.000000 0.000000 0.000000
0.000000 0.000000 0.000000 0.440635 -7.240280 -1.688092 5.619330 0.037007 0.751837 0.908654 -8.079990 -6.072272 -3.437811 -1.835871 -0.730755 0.000000 0.000000 0.000000 0.731256 5.398641 -68.640439 -6.148672 -21.815424 -53.294767 -7.938821 -28.878882 -53.627041 0.000000 0.000000 0.000000 -8.603454 -5.761887 6.060359 -5.765410 -3.041522 -3.300359 -1.268139 -0.492117 -1.442056 0.000000 0.000000 0.000000 -0.676799 0.231517 -7.453726 -4.549812 1.464359 -2.427818 91.250524 -9.233641 -19.222503 0.000000 0.000000 0.000000 -0.353626 0.139700 -3.036079 3.032914 1.002919 -1.516385 92.663701 40.044893 29.833419 0.000000 0.000000 0.000000
0.000000 0.000000 0.000000 0.439287 -7.174858 -1.982181 5.627519 0.134679 0.516617 0.960406 -7.549040 -8.343669 -3.466999 -3.108352 -1.065512 0.000000 0.000000 0.000000 -0.164997 4.982207 -66.300956 -7.119408 -15.803423 -39.250119 -10.090577 -20.179990 -37.004530 0.000000 0.000000 0.000000 -7.822571 -5.590276 7.308302 -4.099344 -2.320998 -3.075958 1.668374 -0.033919 -0.235269 0.000000 0.000000 0.000000 2.606739 1.011387 -7.441411 -4.433773 1.417972 -2.340095 93.939084 -9.002316 -19.567199 0.000000 0.000000 0.000000 -0.000359 0.152214 -2.888181 3.400431 1.072109 -1.539243 91.553305 39.985357 28.671024 0.000000 0.000000 0.000000
0.000000 0.000000 0.000000 0.418715 -6.876906 -2.204440 5.341650 0.253454 0.187065 1.059241 -7.535504 -10.281583 -2.956536 -4.927075 -1.529424 0.000000 0.000000 0.000000 0.437224 4.969662 -64.343126 -4.104010 -13.116809 -33.145720 -4.960312 -19.713882 -39.754300 0.000000 0.000000 0.000000 -7.585710 -5.596442 8.020468 -2.432240 -1.740119 -3.325646 2.733742 -0.008526 -0.233080 0.000000 0.000000 0.000000 3.525831 1.229469 -7.430848 -4.309051 1.424987 -2.366600 95.133476 -8.947219 -19.038630 0.000000 0.000000 0.000000 0.131134 0.152364 -2.753840 3.273405 1.085293 -1.632315 91.104265 39.954453 28.345436 0.000000 0.000000 0.000000
0.000000 0.000000 0.000000 0.383815 -6.416048 -2.388364 4.971991 0.643636 -0.826952 1.216626 -7.990853 -11.764241 -1.250866 -7.169754 -2.121967 0.000000 0.000000 0.000000 3.000903 4.962716 -58.681128 -6.887777 -11.865720 -30.409969 -0.525049 -6.515062 -14.716169 0.000000 0.000000 0.000000 -7.560872 -5.348813 6.586578 -2.258307 -1.685395 -3.374611 2.541594 0.012224 -0.144976 0.000000 0.000000 0.000000 4.433350 1.327860 -6.177650 -2.691241 1.853156 -3.386460 93.539061 -9.092608 -18.658930 0.000000 0.000000 0.000000 0.913668 0.157327 -2.126291 2.496170 1.095821 -2.020089 90.065940 39.871799 28.189110 0.000000 0.000000 0.000000
